<?xml version="1.0" standalone="no"?>
<!DOCTYPE svg PUBLIC "-//W3C//DTD SVG 20010904//EN"
 "http://www.w3.org/TR/2001/REC-SVG-20010904/DTD/svg10.dtd">
<svg version="1.0" xmlns="http://www.w3.org/2000/svg"
 width="1024.000000pt" height="1024.000000pt" viewBox="0 0 1024.000000 1024.000000"
 preserveAspectRatio="xMidYMid meet">

<g transform="translate(0.000000,1024.000000) scale(0.100000,-0.100000)"
fill="#000000" stroke="none">
<path d="M0 5120 l0 -5120 5120 0 5120 0 0 5120 0 5120 -5120 0 -5120 0 0
-5120z m5303 4089 c68 -81 132 -158 141 -171 20 -31 51 -38 466 -107 348 -59
646 -116 712 -137 25 -8 70 -32 100 -53 30 -21 127 -71 216 -110 l161 -73 65
32 c60 30 72 32 134 28 80 -6 144 -35 367 -168 287 -171 618 -407 761 -542 66
-63 134 -164 134 -200 0 -7 13 -22 29 -31 76 -44 262 -184 314 -235 73 -72 97
-120 97 -198 0 -99 -40 -163 -273 -433 l-78 -91 53 0 c82 0 211 -18 281 -40
225 -70 336 -297 274 -561 -46 -191 -220 -484 -429 -721 -33 -38 -56 -68 -51
-68 19 0 256 -39 259 -43 6 -6 -109 -189 -158 -253 -45 -59 -132 -145 -176
-175 -21 -15 -21 -18 -8 -55 7 -22 17 -59 20 -84 16 -101 15 -100 50 -100 51
0 182 -37 239 -67 80 -43 152 -121 195 -210 33 -71 37 -87 40 -179 5 -115 -11
-194 -58 -290 -64 -131 -185 -257 -320 -332 -68 -38 -216 -95 -290 -111 -98
-22 -95 -18 -45 -64 44 -41 145 -197 145 -224 0 -7 -9 -13 -19 -13 -10 0 -63
-23 -117 -52 -55 -28 -139 -66 -189 -84 -85 -30 -88 -33 -63 -43 34 -13 306
-73 461 -102 105 -20 116 -24 104 -38 -87 -104 -314 -362 -401 -456 -153 -166
-150 -162 -139 -177 19 -24 425 -790 420 -794 -2 -2 -111 -13 -243 -24 -347
-29 -537 -61 -809 -135 l-127 -35 -327 46 c-179 25 -395 56 -479 69 l-154 24
-146 -50 c-309 -105 -675 -199 -1082 -279 l-195 -38 -255 53 c-451 94 -694
159 -983 264 l-139 50 -197 -34 c-109 -18 -324 -50 -477 -70 -239 -32 -286
-36 -324 -26 -81 21 -543 183 -615 216 -145 67 -254 176 -331 330 -177 358
-93 841 197 1141 l69 70 -85 28 c-46 15 -139 54 -205 87 -67 32 -130 59 -141
59 -25 0 -24 12 6 71 33 67 76 127 119 168 l35 34 -109 28 c-118 30 -237 77
-328 131 -76 45 -209 179 -255 258 -135 231 -113 496 54 655 73 70 177 120
279 136 41 6 80 13 86 14 6 2 14 30 17 62 3 32 13 80 22 107 l17 50 -28 20
c-93 67 -183 173 -275 323 -42 69 -55 99 -46 104 16 9 169 29 219 29 21 0 38
3 38 6 0 3 -33 45 -73 92 -172 203 -288 379 -359 544 -56 129 -71 203 -66 328
3 92 7 113 34 170 84 179 220 245 544 263 l45 2 -51 55 c-94 102 -229 265
-261 315 -80 126 -58 246 69 360 50 45 231 178 291 213 15 9 27 25 27 35 0 24
36 93 73 140 86 110 528 436 859 635 201 120 259 145 349 146 55 0 73 -5 122
-32 31 -18 63 -32 70 -32 13 0 181 73 457 199 58 27 132 55 165 64 78 21 477
99 670 131 326 56 358 63 385 94 14 15 83 94 154 176 70 81 132 144 136 139 4
-4 64 -74 133 -154z"/>
<path d="M5079 9148 c-46 -52 -104 -119 -129 -150 l-45 -55 -270 -47 c-413
-73 -785 -145 -836 -162 -25 -8 -63 -27 -85 -43 -21 -15 -58 -33 -82 -40 -23
-6 -132 -52 -242 -101 -111 -50 -205 -90 -211 -90 -6 0 -29 15 -50 34 -65 55
-131 63 -222 27 -94 -37 -541 -327 -768 -498 -235 -177 -319 -266 -319 -342 0
-27 -13 -39 -132 -122 -247 -172 -292 -214 -309 -290 -17 -76 16 -127 268
-421 87 -101 163 -190 170 -198 10 -13 -12 -15 -170 -16 -243 -1 -324 -20
-424 -101 -27 -21 -54 -58 -75 -101 -31 -62 -33 -74 -33 -167 0 -76 5 -118 23
-175 82 -263 360 -640 592 -803 13 -9 22 -18 19 -21 -2 -2 -80 -11 -174 -20
-93 -9 -171 -19 -174 -21 -7 -7 85 -138 137 -197 25 -27 81 -75 124 -105 43
-30 78 -56 78 -58 0 -1 -11 -22 -24 -46 -32 -57 -56 -149 -56 -215 l0 -51 -72
-7 c-145 -14 -267 -65 -339 -143 -186 -202 -123 -525 142 -729 175 -134 463
-214 619 -170 54 15 56 15 117 -12 34 -15 63 -29 63 -32 0 -3 -46 -21 -102
-39 -177 -58 -222 -89 -271 -186 l-25 -50 71 -42 c118 -68 191 -87 339 -88 70
-1 130 -4 133 -7 3 -3 -37 -40 -90 -83 -244 -198 -372 -424 -406 -716 -20
-172 16 -361 94 -499 46 -82 168 -199 254 -243 39 -21 197 -81 350 -133 l278
-96 150 16 c217 25 476 62 665 97 l166 30 89 -34 c298 -113 583 -191 1071
-292 l211 -44 133 25 c375 69 768 171 1119 289 l165 55 155 -25 c86 -13 303
-45 482 -70 l327 -46 108 30 c276 76 685 141 890 141 30 0 54 3 54 7 0 9 -135
265 -277 526 l-125 228 34 39 c18 21 94 105 169 187 184 201 292 324 288 327
-2 2 -123 31 -269 65 l-265 62 -93 -97 -93 -98 6 115 c3 63 8 142 11 177 l6
62 112 0 c135 0 235 23 334 75 111 59 109 56 78 109 -61 104 -93 126 -279 191
l-108 38 58 32 c56 30 59 30 93 16 57 -25 206 -18 315 14 356 104 583 364 562
643 -17 221 -192 362 -477 384 l-35 3 -6 80 c-6 89 -21 142 -55 197 l-23 36
62 41 c79 51 161 135 226 230 28 41 51 77 51 81 0 4 -75 15 -167 24 -93 10
-170 20 -172 21 -2 2 14 19 35 37 213 181 393 411 505 643 75 154 92 222 87
340 -8 183 -91 278 -289 332 -50 13 -105 17 -251 17 l-187 0 52 55 c58 61 338
396 376 449 55 77 46 156 -25 232 -25 27 -116 98 -204 159 -87 61 -162 117
-168 124 -6 6 -15 30 -21 53 -22 84 -73 133 -356 346 -203 153 -622 417 -743
469 -78 34 -161 20 -211 -35 -14 -14 -31 -26 -38 -26 -8 0 -71 26 -141 58 -70
32 -154 69 -187 82 -33 13 -78 41 -100 61 -22 21 -53 43 -69 49 -50 19 -550
110 -990 181 l-209 34 -97 120 c-54 66 -113 138 -132 159 l-34 39 -85 -95z
m-290 -363 c-22 -30 -48 -56 -57 -59 -10 -3 -71 -14 -137 -26 -281 -47 -684
-135 -700 -151 -7 -9 -3 -10 15 -6 14 3 88 17 165 32 77 14 183 35 236 46 143
30 409 76 409 71 0 -3 -12 -21 -27 -40 -24 -32 -27 -33 -34 -16 -7 17 -8 17
-8 2 -1 -10 -5 -18 -11 -18 -5 0 -10 -7 -10 -16 0 -8 4 -12 10 -9 5 3 2 -8 -8
-24 -23 -41 -32 -39 -22 4 7 30 5 35 -11 35 -15 0 -19 -7 -19 -39 0 -28 5 -40
16 -43 15 -3 14 -5 -2 -25 -16 -18 -48 -27 -189 -53 -93 -16 -242 -43 -330
-59 -88 -17 -164 -26 -168 -22 -5 5 -11 35 -14 67 -6 61 -22 109 -23 68 0 -36
28 -184 60 -315 16 -67 33 -159 36 -203 7 -94 44 -258 107 -476 25 -85 58
-214 73 -286 28 -130 29 -132 61 -143 33 -12 45 -31 21 -31 -10 0 -9 -3 1 -9
7 -5 15 -27 18 -49 4 -33 1 -41 -14 -46 -15 -5 -18 -14 -15 -45 2 -23 -1 -42
-8 -46 -18 -11 -69 44 -79 85 -16 63 -102 439 -156 685 -83 371 -193 845 -208
895 -30 102 0 128 195 165 176 34 838 153 856 154 7 1 -6 -24 -29 -54z m1101
-30 c465 -77 658 -114 707 -135 73 -32 74 -46 15 -233 -79 -250 -240 -807
-362 -1252 -29 -104 -56 -194 -60 -199 -5 -4 -12 11 -17 35 -9 44 -9 44 -14
12 -3 -18 -1 -30 4 -26 14 9 -3 -39 -24 -66 -24 -30 -24 -24 3 78 16 64 24 79
30 65 6 -14 7 -13 3 7 -2 14 11 80 30 147 19 66 35 133 35 148 0 38 21 104 31
98 5 -3 7 1 4 8 -5 13 115 435 205 723 28 88 49 169 48 180 -2 13 -16 23 -48
31 -26 7 -35 12 -23 13 28 1 57 43 48 70 -16 50 -90 20 -90 -37 0 -27 -3 -30
-25 -27 -178 27 -226 38 -241 55 -11 12 -53 24 -145 39 -71 12 -169 29 -217
38 l-88 16 -49 73 c-49 73 -49 73 -22 69 80 -14 711 -127 790 -142 69 -13 100
-23 120 -41 l26 -25 -17 -45 c-22 -63 -15 -64 12 -3 11 28 31 57 44 66 19 13
20 17 7 26 -13 9 -12 10 2 5 11 -3 19 2 23 14 8 25 -4 48 -15 30 -6 -9 -13 -3
-24 19 -19 36 -30 34 -44 -8 -13 -38 0 -60 25 -41 17 13 17 13 0 -6 -18 -19
-18 -19 -35 2 -14 18 -55 28 -262 63 -135 23 -348 61 -475 83 l-230 40 -32 44
c-18 24 -33 45 -33 47 0 2 10 2 23 0 12 -2 173 -28 357 -58z m-635 -71 c256
-288 405 -549 442 -776 14 -85 15 -108 4 -164 -19 -94 -9 -98 81 -33 246 179
300 217 363 256 38 24 75 43 82 43 19 0 17 -95 -7 -255 -23 -156 -31 -180 -50
-146 -6 13 -37 34 -67 48 -98 45 -189 14 -314 -108 -82 -79 -115 -103 -241
-178 -78 -46 -125 -61 -140 -46 -3 3 3 34 14 68 29 91 35 244 13 343 -35 161
-134 358 -248 493 -24 29 -30 31 -44 20 -35 -29 -131 -169 -177 -258 -78 -151
-97 -218 -103 -356 -4 -106 -2 -132 21 -218 39 -153 148 -362 223 -430 19 -17
21 -15 50 49 l31 65 27 -58 c49 -108 105 -144 230 -151 137 -7 300 42 436 129
34 22 63 39 64 37 2 -2 -2 -42 -7 -89 -13 -101 -7 -132 30 -166 35 -32 115
-73 143 -73 16 0 98 76 279 260 142 143 263 260 270 260 15 0 12 -20 -36 -225
-43 -184 -65 -260 -111 -395 -27 -79 -35 -114 -30 -140 4 -21 37 -74 83 -135
42 -55 103 -140 135 -188 56 -85 58 -90 45 -115 -39 -73 -37 -73 -104 24 -127
186 -318 376 -500 497 -191 128 -455 235 -687 278 -168 32 -437 32 -610 0
-130 -23 -340 -90 -458 -144 -399 -184 -739 -540 -907 -947 -41 -100 -86 -270
-102 -386 -7 -52 -15 -93 -18 -92 -264 129 -435 236 -910 571 -250 177 -357
262 -334 265 26 4 389 -71 549 -113 72 -19 191 -55 265 -80 74 -25 138 -45
142 -45 15 0 8 38 -57 295 -36 142 -64 259 -62 260 1 1 116 -85 255 -192 l252
-194 24 18 c21 16 134 152 274 331 59 76 63 96 33 190 -50 157 -112 398 -131
509 -11 67 -23 129 -26 138 -17 43 41 -8 286 -250 147 -146 270 -265 274 -265
21 0 148 74 166 97 20 25 22 36 17 113 -6 101 -19 145 -144 480 -122 327 -185
600 -140 600 15 0 168 -103 332 -224 61 -45 124 -87 140 -95 17 -7 38 -17 47
-22 27 -13 27 -12 10 34 -8 23 -17 78 -20 123 -11 188 92 412 315 689 93 115
231 265 243 265 5 0 48 -43 95 -96z m-1588 -136 c1 -13 4 -32 7 -44 5 -18 -7
-26 -92 -64 -146 -65 -995 -489 -1012 -506 -20 -20 67 20 410 186 412 200 688
330 699 330 12 0 53 -172 43 -181 -4 -4 -39 -21 -79 -38 -39 -17 -233 -110
-430 -207 -458 -225 -548 -265 -562 -251 -14 14 456 -928 480 -964 12 -16 32
-29 53 -33 19 -4 51 -20 71 -36 21 -17 46 -30 55 -30 10 0 20 -7 24 -15 4 -12
-5 -15 -47 -15 -29 0 -62 -3 -74 -6 -15 -4 -27 1 -40 16 -35 43 -95 95 -115
100 -12 3 -33 31 -53 70 -18 36 -136 265 -261 510 -125 245 -238 463 -252 484
-37 59 -44 93 -27 132 12 29 28 41 107 78 51 25 230 111 398 191 330 160 669
315 685 315 6 0 12 -10 12 -22z m2077 -31 c4 4 4 0 1 -8 -5 -13 10 -18 82 -28
97 -14 118 -19 111 -26 -2 -3 -48 3 -101 13 -81 14 -99 21 -114 42 -13 19 -14
22 -2 13 9 -7 19 -10 23 -6z m1271 -110 c88 -41 259 -123 380 -182 121 -58
258 -123 304 -142 103 -45 151 -87 151 -133 0 -24 -33 -91 -114 -234 -118
-208 -285 -514 -328 -600 -23 -44 -30 -51 -86 -71 -34 -12 -62 -20 -62 -18 0
3 49 91 109 197 60 105 146 261 192 346 46 85 91 166 101 179 22 29 23 41 3
41 -16 0 -323 134 -595 260 -85 39 -209 94 -275 122 -66 28 -121 52 -123 54
-2 1 9 42 25 92 l28 90 165 -78 c91 -42 278 -132 415 -200 138 -67 278 -135
313 -151 35 -17 62 -36 62 -44 0 -19 -11 -19 -56 2 -36 17 -36 17 -55 -6 -23
-28 -24 -54 -3 -72 12 -10 20 -10 35 -1 10 7 24 12 31 12 7 0 5 -5 -5 -11 -14
-8 -16 -14 -6 -25 6 -8 14 -14 18 -14 10 0 111 96 111 106 0 5 -9 14 -20 19
-267 135 -649 324 -800 395 -107 51 -196 94 -198 95 -2 2 2 23 9 48 l11 46 52
-23 c28 -13 123 -57 211 -99z m-538 57 c-3 -3 -12 -4 -19 -1 -8 3 -5 6 6 6 11
1 17 -2 13 -5z m-3419 -20 c12 -8 22 -19 22 -24 0 -11 -174 -100 -405 -207
-198 -91 -250 -125 -286 -182 -30 -47 -36 -91 -20 -148 l9 -32 -211 -159
c-117 -87 -255 -190 -307 -229 -139 -102 -291 -231 -281 -238 6 -3 35 15 66
40 31 26 149 115 263 199 114 84 268 198 342 254 74 56 138 102 141 102 4 0
24 -31 46 -69 l40 -69 -164 -129 c-402 -314 -617 -471 -634 -465 -5 1 -9 -4
-9 -10 1 -14 73 -103 263 -323 70 -81 126 -149 125 -150 -2 -1 -24 0 -50 3
l-48 4 -183 216 c-301 357 -306 363 -313 399 -4 21 -2 44 6 57 13 26 114 102
290 221 159 108 340 239 340 247 0 7 -20 5 -90 -9 -19 -3 -39 -5 -44 -4 -5 1
-17 -6 -27 -15 -11 -9 -19 -12 -19 -7 0 15 121 126 220 204 165 128 464 329
720 483 101 61 154 71 198 40z m4399 -61 c60 -38 179 -114 266 -168 231 -143
475 -321 607 -444 l45 -42 -48 5 c-26 3 -65 14 -87 25 l-39 19 16 -24 c14 -22
26 -28 46 -25 5 1 6 -2 3 -7 -6 -10 -10 -7 274 -211 296 -212 299 -215 300
-275 0 -38 -33 -81 -291 -382 l-207 -242 -46 -4 c-25 -2 -46 -1 -46 2 1 3 48
61 106 130 203 242 284 341 284 350 0 8 -479 363 -702 519 l-117 82 41 69 40
70 46 -33 c26 -19 103 -74 172 -123 202 -143 543 -394 572 -422 26 -24 27 -27
11 -44 -19 -21 -37 -24 -30 -4 3 8 0 22 -7 31 -16 22 -62 17 -60 -8 1 -10 -5
-17 -17 -17 -27 0 -23 -25 7 -49 37 -29 50 -27 112 21 l56 41 -40 34 c-63 55
-428 327 -625 466 -193 137 -180 123 -167 179 14 60 0 114 -44 164 -32 37 -63
52 -505 262 -166 79 -187 97 -140 120 47 24 101 8 214 -65z m-2932 -13 c-57
-112 -87 -230 -86 -337 0 -51 -3 -93 -6 -93 -4 0 -14 6 -22 14 -30 25 -245
148 -284 162 -47 17 -83 10 -118 -23 l-27 -24 -7 58 c-4 32 -16 85 -26 118
-25 80 -25 82 19 89 20 4 138 27 262 51 366 71 339 72 295 -15z m1930 50 c3
-5 -3 -10 -14 -10 -12 0 -21 5 -21 10 0 6 6 10 14 10 8 0 18 -4 21 -10z m-207
-59 c11 -6 6 -23 -23 -81 -20 -39 -34 -74 -31 -77 8 -8 136 -5 187 5 42 8 46
7 42 -9 -9 -34 -31 -41 -130 -42 -84 -2 -142 8 -171 29 -2 1 17 36 42 78 25
42 43 83 40 91 -7 17 22 21 44 6z m-88 -50 c0 -9 -250 -198 -275 -207 -9 -4
-15 0 -15 9 0 14 35 42 200 160 63 45 90 56 90 38z m-2412 -118 c14 -59 60
-255 66 -285 6 -26 4 -28 -26 -28 -33 0 -99 -27 -128 -52 -89 -75 -126 -250
-68 -323 20 -25 20 -27 2 -41 -59 -46 -58 -46 -119 -28 -54 15 -106 14 -149
-2 -12 -5 -16 0 -16 17 -1 66 -71 156 -150 192 -65 30 -218 31 -250 2 -19 -17
-21 -27 -17 -71 12 -119 125 -252 226 -267 11 -2 30 -12 42 -23 21 -19 21 -19
18 1 -2 11 -15 25 -29 33 -24 13 -24 13 10 7 19 -4 45 -13 57 -21 33 -21 37
-17 18 12 -12 19 -14 29 -6 37 16 16 13 73 -5 108 -8 17 -13 33 -10 36 2 3 12
-9 21 -26 20 -40 27 -40 13 1 -23 67 -153 158 -226 158 -9 0 -24 5 -32 11 -31
22 122 -1 177 -27 97 -46 130 -124 103 -240 -10 -42 -11 -57 -2 -66 9 -9 12
-7 12 11 0 41 32 81 73 92 20 5 42 7 48 3 15 -9 -47 -64 -72 -64 -15 0 -19 -7
-19 -39 0 -22 -3 -46 -6 -55 -10 -25 10 -19 21 7 11 25 159 117 189 117 10 0
39 15 65 34 74 54 131 78 196 83 88 8 130 -12 145 -68 10 -37 10 -45 -5 -55
-16 -12 -15 -15 9 -47 22 -28 24 -36 13 -46 -18 -14 -94 -41 -119 -41 -11 0
-49 27 -85 60 -82 77 -108 79 -182 18 -41 -35 -47 -44 -31 -46 15 -3 20 -11
20 -37 0 -39 -18 -55 -98 -85 -49 -19 -50 -19 -55 0 -6 24 -20 25 -43 3 -9 -9
-25 -18 -35 -18 -11 -1 -21 -4 -24 -7 -9 -9 -24 -68 -17 -67 25 3 52 -16 52
-37 0 -35 1 -38 13 -53 10 -12 9 -12 -10 -1 -12 8 -19 18 -16 24 3 5 1 6 -5 2
-11 -6 -82 77 -82 97 0 6 -3 8 -6 5 -12 -13 30 -72 98 -139 39 -38 75 -69 81
-69 6 0 7 23 3 61 -7 57 -6 61 11 55 10 -4 31 -10 46 -13 21 -4 32 -16 44 -44
18 -47 27 -49 43 -9 18 43 35 37 50 -15 15 -53 7 -68 -47 -86 -25 -8 -32 -14
-24 -22 17 -17 13 -42 -9 -62 -19 -17 -22 -17 -63 -1 -41 16 -46 16 -74 0 -37
-22 -83 -13 -83 16 0 11 18 40 40 64 l41 44 -34 -8 c-48 -10 -57 -18 -57 -45
0 -50 -8 -56 -53 -38 -23 9 -50 23 -60 31 -9 9 -68 119 -131 246 -225 458
-329 676 -325 680 2 2 110 54 239 116 129 61 262 125 294 141 67 33 89 31 123
-10 l21 -26 -5 28 c-3 15 -9 27 -14 27 -5 0 -9 11 -9 25 0 14 4 25 9 25 6 0
74 31 153 68 231 110 214 106 226 55z m2994 -37 l38 -16 -29 -53 c-15 -28 -34
-70 -41 -92 -7 -22 -26 -66 -42 -99 -16 -32 -27 -67 -25 -77 3 -10 -1 -23 -9
-30 -8 -6 -14 -16 -14 -21 0 -13 52 0 61 14 8 12 40 7 39 -7 -1 -5 9 -12 22
-15 16 -4 24 -14 26 -33 3 -24 7 -27 42 -27 40 0 110 27 110 42 0 4 4 8 9 8
10 0 128 53 226 102 33 17 56 26 50 21 -14 -14 -202 -125 -250 -149 l-40 -19
58 -3 c52 -3 62 0 100 29 61 47 157 141 152 150 -3 4 7 14 21 24 25 16 29 16
100 -15 69 -31 73 -34 68 -59 -28 -116 -95 -180 -281 -268 -51 -25 -100 -54
-107 -66 -10 -16 -13 -43 -9 -99 5 -67 9 -79 29 -93 42 -27 60 -158 28 -204
-21 -29 -88 -60 -131 -61 -30 0 -32 -2 -35 -42 l-3 -43 -30 52 c-16 29 -36 53
-44 53 -10 0 -12 9 -6 38 4 20 9 39 11 41 2 2 21 -8 42 -23 22 -15 55 -29 75
-33 31 -5 40 -1 67 25 50 50 36 112 -40 172 l-40 31 21 40 c17 34 18 45 8 72
-10 29 -8 39 15 85 29 58 28 80 -7 112 -57 54 -131 0 -167 -121 l-23 -77 -41
19 c-50 23 -113 24 -165 3 -37 -15 -42 -14 -86 5 -30 13 -45 26 -42 34 3 7 13
41 22 76 10 34 21 59 24 54 3 -4 12 -9 19 -11 12 -2 21 4 56 35 8 7 17 9 22 5
4 -4 -10 16 -32 43 l-41 50 68 225 c37 124 68 226 68 227 1 3 26 -7 83 -31z
m171 -83 c-6 -16 -5 -17 12 -3 19 15 19 15 1 -15 -33 -53 -87 -115 -96 -110
-4 3 -7 -3 -6 -13 0 -9 -4 -16 -10 -15 -6 1 -11 -4 -11 -12 0 -16 20 -10 59
17 16 11 33 16 39 12 7 -4 9 -3 6 3 -6 10 6 20 96 77 15 10 27 14 27 9 0 -11
-198 -158 -235 -175 -14 -6 -25 -16 -25 -22 0 -6 -4 -5 -9 2 -6 10 -10 7 -15
-12 -7 -28 -26 -36 -26 -11 0 8 5 15 10 15 6 0 10 7 10 15 0 8 5 15 10 15 6 0
10 7 10 16 0 14 56 102 126 197 22 30 36 35 27 10z m-1724 -41 c20 -40 40
-107 61 -207 7 -33 17 -64 22 -69 10 -12 11 -50 1 -59 -10 -11 -53 34 -53 55
0 11 -4 16 -10 13 -5 -3 -10 -4 -10 -1 0 2 -3 12 -7 22 -5 13 -3 15 8 9 12 -7
12 -6 0 9 -8 10 -14 34 -13 53 2 22 -1 32 -8 28 -6 -4 -10 4 -10 19 0 14 -5
28 -11 32 -6 3 -9 15 -6 25 3 12 1 17 -6 12 -7 -4 -8 0 -3 13 4 10 10 34 13
52 3 17 7 32 9 32 2 0 12 -17 23 -38z m1966 -74 c-11 -6 -75 -42 -143 -80 -67
-38 -139 -76 -159 -85 -34 -14 -36 -14 -24 1 22 26 303 175 331 175 10 0 9 -3
-5 -11z m-3335 -102 c0 -7 3 -27 6 -43 6 -29 4 -30 -35 -36 -39 -5 -117 -44
-107 -54 2 -2 22 5 45 16 52 27 107 28 116 2 3 -10 5 -23 4 -27 -1 -5 3 -22 9
-37 16 -38 15 -39 -7 -27 -30 15 -103 12 -126 -7 l-20 -16 20 8 c26 11 92 7
116 -6 20 -10 43 -49 53 -90 6 -26 5 -27 -32 -18 -20 5 -54 9 -74 9 -41 0 -43
3 -29 63 11 47 0 48 -50 2 -22 -19 -44 -35 -50 -35 -5 0 -7 -5 -3 -12 5 -8 2
-9 -10 -5 -9 4 -14 3 -11 -2 3 -5 1 -12 -4 -16 -16 -9 -32 30 -19 43 9 9 9 12
0 12 -11 0 -10 8 5 48 3 9 7 32 8 49 1 18 5 36 10 40 4 5 5 2 0 -6 -5 -9 -4
-12 3 -7 7 4 12 13 12 21 0 7 12 27 26 44 20 25 29 29 44 21 15 -8 18 -6 16 8
-3 18 50 72 72 72 6 0 12 -6 12 -14z m3689 -64 c-38 -29 -125 -86 -116 -76 24
26 114 93 126 93 8 1 3 -7 -10 -17z m-4780 -147 c1 -5 -10 8 -24 30 -13 22
-24 47 -24 55 0 16 48 -68 48 -85z m5246 -97 c83 -57 189 -133 236 -168 47
-36 154 -114 237 -175 83 -60 151 -112 152 -115 0 -6 -319 -391 -372 -447 -21
-24 -43 -43 -49 -43 -47 0 -320 -60 -419 -92 -222 -71 -220 -71 -196 -36 9 12
16 30 16 40 0 22 -1 22 39 2 42 -21 91 -13 143 21 43 29 43 34 -5 51 -48 16
-43 31 13 36 64 6 102 34 112 79 9 46 -1 92 -18 85 -8 -4 -21 -9 -29 -12 -30
-12 -14 23 31 66 73 72 104 155 74 200 -8 11 -9 8 -4 -12 4 -20 2 -28 -7 -28
-8 0 -24 -3 -35 -6 -19 -5 -22 0 -28 41 -4 25 -13 61 -19 80 -11 30 -12 21
-12 -76 0 -73 3 -103 9 -89 6 13 19 20 38 20 48 0 37 -17 -77 -123 -17 -15
-37 -35 -46 -45 -51 -54 -70 -58 -135 -31 -56 22 -118 -10 -112 -60 3 -23 8
-26 43 -29 29 -2 46 3 62 17 17 16 23 18 32 7 8 -10 -1 -25 -40 -65 -29 -28
-55 -51 -59 -51 -4 0 -17 -9 -30 -20 -13 -11 -20 -20 -16 -20 4 0 2 -10 -5
-22 -11 -20 -12 -21 -22 -2 -18 35 -81 94 -99 94 -10 0 -18 3 -18 6 0 4 44 75
97 160 90 142 99 152 109 132 10 -19 12 -13 10 37 -1 48 -5 61 -19 63 -13 3
-16 9 -11 25 11 38 25 48 56 42 22 -5 34 -1 58 23 18 19 30 41 31 59 0 15 4
37 8 48 7 17 11 14 40 -25 18 -25 39 -57 47 -72 8 -16 19 -28 25 -28 11 0 -3
26 -59 105 -35 50 -65 57 -70 16 -4 -23 -4 -23 -38 10 -26 26 -37 30 -46 21
-9 -9 -8 -12 5 -12 23 0 70 -74 63 -98 -10 -29 -48 -43 -71 -26 -26 20 -45 17
-72 -8 -13 -12 -25 -20 -27 -17 -4 4 103 208 232 442 41 76 80 136 86 134 6
-3 79 -51 161 -109z m-4855 18 c70 -59 100 -108 100 -165 0 -45 -3 -46 -80
-43 -42 2 -149 53 -176 84 l-19 22 27 -21 c15 -11 49 -24 75 -27 27 -4 70 -14
96 -23 27 -8 51 -12 54 -9 3 3 -32 44 -78 91 -46 47 -87 94 -91 105 -4 11 -12
20 -18 20 -5 0 -10 4 -10 10 0 15 87 -16 120 -44z m3841 35 c19 -16 22 -22 12
-32 -11 -11 -13 -10 -13 3 0 25 -35 31 -65 12 -31 -20 -34 -3 -2 19 29 21 40
21 68 -2z m-3772 -65 c14 -14 22 -28 20 -31 -3 -2 -23 14 -44 37 -22 23 -31
36 -20 30 11 -5 31 -22 44 -36z m2891 14 c31 -29 32 -34 27 -84 -9 -88 -43
-137 -192 -275 -45 -42 -163 -113 -234 -140 -97 -37 -142 -44 -215 -32 -87 15
-138 44 -159 88 -17 37 -16 39 6 83 l23 45 96 1 c108 2 187 21 238 59 32 24
80 85 66 85 -4 0 -33 -13 -66 -30 -33 -16 -67 -30 -77 -30 -10 1 18 18 62 40
55 26 104 61 155 109 125 117 206 141 270 81z m-3674 -15 c13 -20 15 -47 13
-147 -4 -112 -7 -128 -33 -183 -46 -94 -222 -255 -279 -255 -37 0 -70 32 -69
66 1 56 18 79 87 120 96 56 149 105 163 152 7 22 12 80 12 130 0 90 0 91 33
116 40 32 52 32 73 1z m1228 -44 c-2 -3 -12 3 -22 13 -16 17 -16 18 5 5 12 -7
20 -15 17 -18z m3195 -70 c-12 -28 -25 -51 -29 -51 -3 0 5 25 19 55 31 68 40
65 10 -4z m-98 -12 c19 -7 39 -16 44 -22 7 -7 3 -7 -10 -2 -75 29 -141 29
-217 0 -10 -4 -18 -3 -18 3 0 26 142 40 201 21z m-2551 -168 c17 -46 28 -86
26 -89 -17 -16 -34 14 -44 76 -7 39 -15 78 -19 88 -3 11 -3 17 0 14 3 -3 20
-43 37 -89z m2785 27 l40 -40 -47 33 c-26 19 -47 37 -48 42 0 15 16 5 55 -35z
m250 3 c5 -1 5 -5 -1 -11 -7 -7 -19 -8 -37 -1 -42 16 -36 18 38 12z m-4495
-53 c0 -7 -9 -31 -21 -55 -11 -23 -19 -51 -16 -60 4 -19 8 -13 38 65 10 26 13
23 63 -83 29 -60 60 -127 70 -147 9 -20 21 -40 26 -43 6 -3 10 -13 10 -21 0
-9 12 -31 26 -49 l25 -34 -49 -21 c-27 -12 -64 -36 -82 -55 -32 -33 -32 -34
-25 -102 4 -37 9 -72 12 -76 5 -9 43 66 43 84 0 5 -9 9 -20 9 -57 0 15 71 96
96 70 21 118 18 150 -9 36 -31 27 -57 -19 -57 -85 0 -173 -56 -207 -133 -19
-42 -26 -39 -60 29 -11 22 -19 32 -20 23 0 -11 -11 -16 -37 -17 -31 -1 -42 4
-67 35 -17 21 -31 50 -32 65 -2 26 0 27 11 11 10 -13 10 -20 2 -25 -9 -5 -9
-10 -1 -18 8 -8 13 -5 17 10 4 17 -5 34 -37 69 -24 25 -53 71 -64 101 -25 65
-28 48 -7 -35 37 -142 88 -214 206 -290 97 -63 104 -84 16 -46 -68 29 -179
139 -216 214 -66 135 -84 315 -32 332 12 3 20 25 28 71 14 79 22 90 54 73 20
-10 25 -9 34 6 47 79 67 105 75 100 6 -3 10 -11 10 -17z m3426 -13 c-3 -9 -11
-13 -16 -10 -8 5 -7 11 1 21 14 18 24 11 15 -11z m-2162 -57 c4 -29 10 -64 13
-78 5 -22 -1 -18 -46 25 l-51 49 32 33 c17 18 34 30 38 28 4 -3 10 -28 14 -57z
m2446 13 c-1 -3 -21 -21 -46 -40 -36 -26 -45 -29 -41 -15 3 11 9 36 12 56 l7
37 34 -16 c19 -9 34 -19 34 -22z m-278 -87 c4 -3 5 -11 1 -19 -10 -29 -83 -10
-83 21 0 13 7 15 37 9 21 -4 41 -9 45 -11z m-43 -50 c17 -4 31 -13 31 -20 0
-8 -4 -14 -9 -14 -19 0 -71 23 -71 31 0 11 7 11 49 3z m6 -64 c-11 -5 -27 -9
-35 -9 -13 -1 -13 0 0 9 8 5 24 9 35 9 l20 0 -20 -9z m1315 -7 c0 -54 -509
-733 -549 -733 -4 0 -33 38 -64 83 -53 81 -91 119 -187 190 -47 35 -52 55 -28
101 16 30 425 218 708 325 110 42 120 45 120 34z m-3180 -58 c0 -8 -2 -15 -4
-15 -2 0 -6 7 -10 15 -3 8 -1 15 4 15 6 0 10 -7 10 -15z m-636 -97 c3 -7 7
-37 10 -65 l5 -53 -55 0 c-53 0 -55 1 -48 23 3 12 11 24 15 25 5 2 9 9 9 16 0
17 38 66 51 66 5 0 11 -6 13 -12z m1767 -64 c166 -23 409 -91 409 -114 0 -16
-56 -19 -295 -18 -253 1 -372 -11 -537 -52 -157 -39 -145 -30 -150 -114 -4
-55 -12 -85 -34 -126 -63 -116 -176 -209 -329 -271 -67 -28 -96 -33 -181 -37
-117 -5 -164 10 -190 60 l-15 29 -39 -31 c-42 -34 -99 -95 -152 -165 -18 -24
-40 -47 -48 -50 -19 -8 -40 22 -41 59 -1 26 -8 17 -45 -59 -85 -174 -143 -385
-144 -522 0 -35 -3 -63 -8 -63 -19 0 -82 53 -82 69 0 47 34 203 65 300 125
386 430 738 804 930 319 163 669 223 1012 175z m-2783 -35 c-3 -8 -7 -3 -11
10 -4 17 -3 21 5 13 5 -5 8 -16 6 -23z m892 -5 c12 -12 8 -14 -32 -14 -26 0
-54 3 -63 6 -15 6 -15 8 0 24 14 15 22 17 48 8 18 -6 39 -17 47 -24z m4360 -5
c-7 -12 -18 -18 -26 -15 -8 3 -13 2 -10 -3 3 -5 -8 -11 -25 -15 -37 -7 -110
-7 -91 1 6 2 10 8 7 13 -3 4 2 11 11 14 8 3 12 2 9 -4 -3 -6 -4 -10 -1 -10 2
0 12 -3 22 -7 12 -4 15 -2 12 8 -3 10 9 17 41 25 64 16 63 16 51 -7z m-4202
-135 c42 -6 52 -10 52 -25 0 -11 -4 -19 -8 -19 -22 0 -158 -141 -207 -215
l-56 -83 -212 159 c-116 88 -212 163 -212 167 0 4 14 10 30 13 40 9 545 11
613 3z m5177 -25 c125 -17 200 -61 242 -142 22 -44 28 -144 12 -208 l-13 -54
-8 84 c-5 64 -12 89 -27 104 -19 20 -20 20 -35 -17 -8 -20 -23 -39 -33 -43
-10 -4 -20 -10 -23 -14 -3 -5 -24 -11 -47 -15 -39 -6 -44 -4 -87 40 -70 69
-85 129 -45 180 32 40 7 31 -68 -26 -159 -121 -241 -193 -230 -200 7 -5 1 -8
-14 -8 -14 0 -37 10 -51 23 -27 25 -68 122 -68 161 0 12 -3 25 -6 28 -18 19
-482 -131 -617 -199 -60 -30 -76 -34 -130 -31 l-62 3 165 82 c309 153 600 232
940 256 98 7 131 7 205 -4z m-6966 -14 c234 -34 482 -111 726 -225 143 -67
181 -90 163 -101 -24 -16 -62 -9 -148 27 -186 78 -605 214 -661 214 -12 0 -19
-12 -24 -47 -8 -59 -40 -136 -66 -159 -18 -16 -22 -13 -97 57 -109 103 -202
182 -202 173 0 -4 7 -15 16 -25 13 -14 13 -24 4 -61 -30 -112 -120 -176 -193
-136 -36 19 -76 71 -83 107 l-7 34 -13 -24 c-30 -56 -36 -114 -20 -200 9 -46
14 -84 12 -86 -8 -8 -37 84 -48 150 -9 62 -8 81 6 132 23 79 88 144 167 167
73 22 325 23 468 3z m5696 -5 c11 -17 -4 -45 -36 -69 -34 -25 -51 -21 -26 6 8
10 20 30 26 46 11 28 25 35 36 17z m-228 -187 c-59 -208 -110 -423 -103 -430
3 -4 79 17 169 45 89 28 207 62 262 76 125 31 432 93 505 102 l55 7 -105 -80
c-58 -43 -175 -128 -260 -188 -85 -60 -222 -157 -305 -215 -184 -131 -290
-202 -330 -222 -16 -8 -70 -25 -120 -38 -49 -12 -105 -31 -123 -42 -37 -23
-34 -27 -52 82 -14 87 -83 304 -129 404 -35 78 -38 68 47 156 30 30 59 69 66
85 7 17 57 68 111 115 125 109 338 280 343 275 3 -2 -12 -62 -31 -132z m-1817
32 c0 -21 -16 -67 -42 -125 -35 -75 -110 -170 -209 -264 -137 -129 -235 -200
-376 -272 -59 -31 -115 -61 -123 -66 -22 -15 26 27 111 99 177 149 522 536
588 661 12 23 13 23 32 6 10 -9 19 -27 19 -39z m129 -101 c44 -56 12 -110 -61
-105 -48 3 -76 81 -42 115 25 26 79 20 103 -10z m186 -143 c67 -30 115 -105
115 -176 -1 -56 -66 -143 -123 -164 -79 -30 -188 1 -231 66 -105 159 64 354
239 274z m3172 -13 c-3 -8 -6 -5 -6 6 -1 11 2 17 5 13 3 -3 4 -12 1 -19z
m-4476 -167 c40 -40 40 -89 0 -133 -25 -28 -36 -33 -76 -33 -39 0 -51 5 -71
28 -33 39 -33 95 2 136 22 26 33 31 71 31 36 0 50 -6 74 -29z m-2622 -36 c276
-69 588 -183 618 -224 15 -22 15 -23 -5 -12 -30 16 -132 14 -212 -5 -65 -14
-72 -14 -102 2 -66 34 -413 171 -416 163 -6 -14 55 -122 131 -236 42 -62 72
-115 67 -118 -11 -7 -139 183 -189 283 -64 127 -91 192 -80 192 5 0 90 -20
188 -45z m6696 23 c-20 -67 -142 -294 -200 -371 l-65 -88 -24 28 -23 27 39 50
c40 50 71 71 89 60 5 -3 12 3 16 13 3 10 11 25 18 33 31 39 63 107 56 118 -16
26 -282 -78 -364 -143 l-29 -22 -62 20 c-44 14 -90 20 -168 21 -99 1 -105 2
-91 18 28 32 360 144 641 218 178 47 175 46 167 18z m-4421 -19 c53 -42 23
-122 -46 -122 -72 0 -95 112 -28 136 29 10 47 7 74 -14z m4218 -261 c-7 -7
-12 -8 -12 -2 0 14 12 26 19 19 2 -3 -1 -11 -7 -17z m-5814 -84 c30 -8 28 -19
-8 -34 -35 -14 -80 -97 -80 -146 0 -24 -7 -38 -29 -53 -26 -19 -257 -81 -300
-81 -25 0 -39 43 -31 97 5 37 4 41 -11 33 -9 -5 -39 -34 -67 -65 -51 -56 -82
-125 -82 -184 0 -46 -17 -56 -23 -16 -21 130 95 321 238 390 92 45 170 64 275
64 52 0 105 -2 118 -5z m5465 -27 c124 -48 229 -139 283 -244 23 -46 29 -73
31 -133 l3 -75 -19 60 c-10 33 -27 78 -39 100 -18 35 -94 117 -144 154 -17 12
-17 11 -1 -20 9 -19 17 -54 18 -79 0 -42 -2 -45 -28 -48 -26 -3 -238 38 -284
55 -14 5 -37 39 -63 91 -23 46 -60 100 -82 122 -51 48 -46 50 127 46 112 -2
139 -6 198 -29z m-2721 -1 c99 -35 154 -70 234 -150 122 -122 181 -272 171
-436 -9 -143 -63 -265 -161 -360 -231 -228 -558 -233 -794 -15 -151 140 -217
346 -173 535 47 198 225 381 422 434 87 24 222 20 301 -8z m-3374 -90 c2 -2
-12 -25 -32 -50 -19 -25 -37 -55 -41 -66 -3 -11 -10 -20 -14 -20 -5 0 -45 35
-91 78 l-83 77 129 -8 c70 -4 130 -9 132 -11z m6577 -63 c-70 -67 -81 -74 -90
-58 -5 10 -25 40 -42 67 -18 28 -33 52 -33 53 0 5 81 11 170 13 l75 1 -80 -76z
m-3981 -90 c-41 -80 -61 -147 -72 -228 -6 -56 -9 -60 -35 -63 -15 -2 -89 8
-165 22 -150 28 -244 53 -202 55 14 1 36 2 50 3 14 1 72 -8 130 -19 178 -36
169 -35 174 -10 3 12 8 47 11 77 8 76 24 125 49 152 12 12 20 24 19 25 -11 12
1 25 21 21 15 -3 27 2 35 14 25 40 17 14 -15 -49z m-1642 37 c106 -10 251 -46
311 -77 74 -37 157 -98 157 -115 0 -14 -19 -8 -103 36 -123 63 -213 87 -440
117 -92 13 -164 26 -160 30 5 4 33 10 63 12 30 2 57 4 60 5 3 1 53 -3 112 -8z
m4742 -9 c3 -5 -31 -14 -77 -20 -380 -51 -412 -58 -554 -121 -61 -27 -77 -21
-42 16 45 48 160 95 292 119 82 15 373 20 381 6z m-5144 -33 c7 -18 12 -36 11
-40 0 -5 4 -8 10 -8 5 0 7 -5 4 -11 -4 -6 1 -16 11 -24 18 -13 18 -14 1 -11
-22 3 -77 80 -77 108 0 30 27 20 40 -14z m3328 -112 c0 -14 26 -26 33 -15 9
15 21 -85 14 -114 -5 -18 -2 -26 12 -31 14 -6 16 -5 6 5 -7 7 -13 18 -13 24 0
7 3 7 8 -1 4 -6 27 -16 52 -22 l45 -11 -40 5 c-29 3 -36 2 -25 -5 11 -8 3 -11
-32 -11 l-48 0 0 43 c0 38 -17 121 -34 172 -5 12 -2 11 7 -5 8 -14 15 -29 15
-34z m-3970 -143 c9 -17 6 -25 -22 -52 l-32 -31 -64 41 c-36 23 -91 69 -124
103 l-60 61 80 7 c44 4 105 11 135 15 l54 8 11 -66 c6 -36 16 -75 22 -86z
m1743 93 c44 -25 47 -29 53 -83 4 -31 4 -58 2 -61 -3 -2 -41 20 -85 49 l-81
53 0 54 0 54 33 -20 c17 -11 53 -31 78 -46z m3209 5 l0 -58 -80 -51 -80 -51 1
42 c2 74 10 88 84 134 38 24 71 43 72 43 2 0 3 -26 3 -59z m1814 38 c64 -7
116 -16 116 -20 0 -16 -144 -139 -194 -165 l-55 -29 -24 23 -25 23 19 60 c11
34 19 77 19 96 0 26 4 34 14 30 7 -3 66 -11 130 -18z m-6058 -169 c122 -60
225 -113 228 -119 3 -5 -44 -51 -106 -102 -123 -103 -304 -278 -362 -351 -37
-46 -37 -47 -21 -78 9 -18 15 -34 12 -36 -2 -2 -12 12 -23 32 -19 35 -19 35
-74 30 -30 -3 -146 -8 -256 -12 l-202 -6 -7 108 c-9 131 3 205 46 290 60 120
172 220 323 289 67 31 165 62 205 64 8 1 114 -48 237 -109z m5467 91 c278 -71
487 -262 517 -472 9 -63 3 -238 -9 -257 -4 -7 -91 -6 -260 4 -239 13 -255 13
-268 -4 -8 -9 -12 -11 -8 -4 12 24 -43 97 -157 207 -155 151 -344 308 -360
299 -7 -4 -2 5 12 19 14 15 97 60 185 100 88 41 180 86 205 101 54 31 48 31
143 7z m-4036 3 c-3 -3 -12 -4 -19 -1 -8 3 -5 6 6 6 11 1 17 -2 13 -5z m93 -4
c0 -5 -7 -7 -15 -4 -8 4 -15 8 -15 10 0 2 7 4 15 4 8 0 15 -4 15 -10z m2160 1
c0 -5 8 -12 18 -14 14 -4 14 -5 1 -6 -9 0 -22 6 -29 14 -9 10 -9 15 -1 15 6 0
11 -4 11 -9z m-35 -11 c-3 -5 2 -10 12 -11 10 0 3 -5 -16 -11 -38 -10 -85 -3
-76 12 3 6 14 10 23 10 15 0 15 -2 2 -11 -12 -8 -11 -9 5 -6 11 2 19 9 18 15
-2 7 6 12 18 12 11 0 17 -4 14 -10z m-98 -16 c-3 -3 -12 -4 -19 -1 -8 3 -5 6
6 6 11 1 17 -2 13 -5z m-33 -13 c3 -4 18 -7 33 -5 28 4 28 4 3 -5 -35 -12 -62
-13 -55 -1 3 6 1 10 -4 10 -6 0 -11 -6 -11 -14 0 -11 -9 -13 -37 -9 -50 8 -58
17 -10 11 26 -3 37 0 37 9 0 14 36 18 44 4z m-2042 -85 c89 -19 224 -44 298
-56 74 -12 136 -24 138 -25 2 -2 6 -22 8 -44 3 -23 11 -60 19 -82 8 -23 15
-42 15 -43 0 -11 -376 65 -480 97 -70 21 -75 25 -78 52 -8 76 -21 102 -60 118
-20 8 -34 15 -30 16 3 1 80 -14 170 -33z m2348 15 c-57 -34 -486 -119 -544
-108 -34 6 -5 13 175 41 91 15 208 37 260 50 105 27 133 31 109 17z m-3041
-52 c17 -6 31 -16 31 -22 1 -66 56 -333 89 -432 11 -33 18 -62 15 -64 -9 -9
-117 31 -213 80 -108 54 -180 120 -220 202 -50 104 -8 207 100 243 47 15 144
12 198 -7z m3798 6 c55 -16 108 -65 119 -111 25 -101 -79 -259 -216 -329 -63
-32 -231 -98 -236 -93 -2 2 4 26 12 53 30 98 82 311 94 388 l13 77 46 14 c61
19 106 19 168 1z m-3507 -62 c227 -112 474 -187 769 -235 l144 -23 37 -50
c157 -211 415 -329 650 -296 167 23 291 82 400 191 36 36 79 89 95 117 l30 51
95 12 c191 24 418 76 591 136 115 39 272 111 320 145 l31 22 -7 -49 c-71 -514
-334 -947 -737 -1211 -189 -124 -383 -204 -602 -248 -282 -56 -518 -39 -813
56 -259 84 -515 245 -694 438 -232 247 -375 548 -434 910 -17 101 -17 104 -7
99 4 -1 63 -31 132 -65z m-1985 -488 c7 -69 5 -78 -20 -122 -31 -53 -113 -143
-131 -143 -6 0 -27 17 -46 38 l-35 39 -46 -44 c-57 -53 -82 -57 -73 -11 6 31
6 32 -11 15 -14 -14 -18 -32 -16 -89 3 -82 -11 -82 -27 0 -24 131 52 277 180
342 51 26 134 48 182 49 l36 1 7 -75z m7165 49 c102 -30 195 -121 221 -217 14
-49 13 -155 0 -189 -9 -20 -10 -18 -10 19 -1 23 -6 64 -13 92 l-11 51 -19 -30
c-23 -39 -52 -38 -88 2 l-29 31 -12 -27 c-7 -15 -24 -33 -39 -41 -53 -27 -117
27 -159 133 -19 47 -20 59 -10 128 l12 76 54 -7 c30 -4 77 -13 103 -21z
m-5800 -9 c0 -11 -49 -135 -69 -174 -25 -48 -77 -108 -132 -151 l-37 -30 -27
55 c-15 30 -31 58 -35 60 -4 3 -4 24 1 46 6 23 8 43 6 45 -9 9 -127 -118 -155
-168 -17 -30 -47 -103 -67 -164 -20 -60 -38 -115 -41 -123 -12 -35 -11 1 1 71
42 244 145 406 307 483 41 20 94 39 119 44 49 10 129 14 129 6z m4383 -10
c154 -32 294 -144 363 -288 36 -76 78 -248 72 -296 -2 -17 -13 9 -31 74 -37
136 -95 250 -162 321 -30 32 -58 55 -61 51 -4 -4 -11 -32 -15 -61 -7 -53 -51
-131 -70 -124 -5 2 -40 31 -78 66 -76 67 -107 114 -146 211 l-24 61 42 0 c23
0 72 -7 110 -15z m-3741 -313 c37 -59 106 -156 153 -215 48 -60 85 -111 82
-113 -2 -2 -41 -14 -87 -25 l-82 -21 -50 48 c-102 102 -148 208 -148 347 0 45
5 100 11 122 l11 40 22 -39 c11 -21 51 -86 88 -144z m3094 38 c7 -73 -13 -175
-46 -240 -11 -23 -49 -70 -83 -106 l-62 -66 -75 22 c-41 13 -77 24 -79 26 -2
2 29 45 70 96 81 103 219 310 240 360 l13 32 8 -30 c4 -16 11 -58 14 -94z
m-4866 58 l73 -51 -25 -21 c-14 -12 -33 -36 -42 -53 -34 -68 -142 -47 -162 32
-14 57 28 145 69 145 7 0 46 -23 87 -52z m6644 27 c52 -56 41 -150 -21 -183
-41 -23 -80 -15 -104 21 -12 17 -33 44 -46 58 l-24 26 68 51 c37 28 76 52 86
52 10 0 28 -11 41 -25z m-6475 -188 c9 -8 48 -36 86 -62 82 -56 85 -61 78 -96
-6 -33 55 -132 138 -224 30 -32 44 -52 32 -44 -44 30 -119 105 -153 152 l-34
48 -13 -26 c-8 -14 -20 -25 -27 -25 -10 0 -234 105 -244 114 -1 2 18 34 43 71
25 38 47 77 51 87 6 21 22 23 43 5z m6269 -83 c34 -52 62 -100 62 -105 0 -21
-274 -178 -288 -165 -3 3 0 6 6 6 7 0 12 8 12 18 0 9 9 22 20 27 180 88 222
116 199 130 -6 4 -14 3 -18 -4 -10 -16 -159 -91 -180 -91 -10 0 -23 10 -30 23
l-12 22 5 -22 c2 -12 1 -21 -3 -20 -3 1 -41 -32 -83 -75 -67 -67 -111 -98
-123 -86 -2 2 19 30 47 63 110 132 139 177 136 212 -3 31 2 36 87 98 50 35 93
65 96 65 3 0 34 -43 67 -96z m-5027 -160 c74 -36 159 -75 189 -86 30 -12 57
-22 59 -24 2 -2 -9 -18 -23 -35 -38 -45 -89 -150 -115 -236 -17 -58 -27 -76
-49 -87 -43 -22 -234 -76 -356 -101 l-111 -23 -6 27 c-12 48 -9 158 5 234 26
134 96 278 185 379 38 44 29 46 222 -48z m3939 10 c69 -87 93 -130 127 -229
28 -83 49 -251 39 -317 -9 -58 -6 -58 -176 -19 -141 33 -298 84 -316 103 -6 7
-23 49 -38 93 -14 44 -49 118 -76 164 -28 46 -50 85 -50 87 0 4 411 191 427
194 2 0 30 -34 63 -76z m-5299 45 c11 -5 17 -15 13 -20 -3 -6 0 -9 7 -7 18 4
79 -22 79 -33 0 -5 6 -9 13 -9 14 0 136 -69 186 -105 19 -14 29 -25 24 -25
-36 0 -282 124 -298 150 -3 5 -21 17 -40 26 -19 9 -32 20 -29 25 7 12 21 11
45 -2z m6143 -168 c6 -9 -54 -35 -62 -27 -2 3 2 12 9 20 16 17 45 21 53 7z
m-4274 -120 c80 -26 178 -57 219 -67 l75 -19 -75 -6 c-41 -3 -99 -14 -129 -24
-62 -20 -84 -21 -153 -10 -42 7 -50 5 -68 -14 -25 -27 -34 -27 -65 4 -18 18
-23 31 -19 43 4 9 11 34 15 55 4 21 18 49 30 63 13 13 24 24 24 24 1 0 66 -22
146 -49z m2858 -3 c53 -70 88 -139 63 -123 -18 10 -40 -35 -31 -61 11 -28 5
-50 -16 -58 -12 -5 -74 49 -74 66 0 3 -11 20 -26 37 -22 27 -28 29 -52 20 -30
-12 -128 -4 -170 13 -15 6 -56 13 -92 17 l-65 6 120 33 c66 19 158 49 205 67
47 19 88 34 91 34 4 1 25 -23 47 -51z m-3997 -76 c-12 -22 -216 -160 -296
-200 -33 -16 -85 -37 -115 -47 -30 -10 -59 -21 -64 -26 -16 -14 57 -11 142 7
91 19 175 61 245 123 l50 45 -7 -69 c-4 -39 -11 -73 -14 -76 -4 -4 -70 -23
-148 -43 -101 -26 -162 -36 -215 -36 -142 1 -319 48 -319 84 0 25 53 46 232
92 163 42 412 121 473 149 41 18 47 18 36 -3z m5109 -30 c69 -22 197 -59 285
-82 281 -73 361 -106 341 -139 -12 -19 -117 -51 -208 -62 -143 -17 -226 -7
-490 62 -35 9 -38 12 -38 47 0 20 3 54 6 74 l7 38 39 -36 c97 -88 196 -131
318 -140 l75 -5 -85 38 c-108 48 -232 117 -249 137 -7 9 -37 29 -65 46 -52 29
-107 79 -76 68 8 -3 71 -24 140 -46z m-2275 -307 c142 -40 273 -141 335 -258
14 -26 28 -47 32 -47 5 0 8 61 8 135 l0 135 28 0 c72 -1 443 -21 570 -31 l142
-12 -1 -111 c0 -61 -6 -144 -13 -183 -7 -40 -12 -73 -10 -73 1 0 23 29 47 63
121 169 255 248 446 263 131 10 271 -31 372 -108 l47 -36 4 74 c3 41 8 77 11
81 4 3 66 -2 139 -11 220 -29 208 -26 203 -50 -7 -35 -27 -577 -21 -583 3 -3
18 10 33 28 15 18 35 40 43 49 8 8 71 80 139 160 69 80 130 145 135 145 21 0
281 -58 288 -64 4 -3 -89 -109 -207 -236 l-214 -230 99 -190 c54 -104 135
-257 178 -340 44 -82 79 -151 77 -153 -1 -2 -82 9 -180 23 -98 14 -181 25
-185 25 -8 0 -151 311 -186 405 l-19 50 -3 -223 -2 -222 -23 4 c-12 3 -71 12
-132 21 -60 9 -122 18 -137 21 l-28 6 0 119 c0 65 -4 119 -9 119 -5 0 -15 -7
-22 -16 -49 -59 -182 -107 -299 -107 -169 0 -304 55 -423 174 l-78 77 6 -86
c4 -48 8 -93 10 -99 6 -17 -34 -17 -343 2 -136 8 -300 17 -364 21 l-118 6 -2
170 -3 171 -33 -51 c-69 -108 -207 -200 -352 -236 -39 -10 -126 -19 -220 -21
-85 -3 -193 -7 -239 -10 l-84 -4 7 317 c6 314 21 709 32 871 l6 83 226 -5
c170 -4 242 -9 287 -22z m-886 -45 c122 -16 235 -82 277 -162 28 -54 45 -160
45 -285 1 -120 0 -125 -26 -159 -34 -44 -101 -88 -178 -116 -50 -18 -57 -24
-51 -42 3 -12 59 -114 123 -228 l118 -207 -71 -5 c-39 -3 -119 -8 -179 -11
l-108 -6 -66 138 c-36 76 -80 173 -98 217 -39 95 -40 92 -55 -109 -6 -77 -13
-168 -16 -201 l-5 -62 -92 -7 c-51 -3 -186 -17 -302 -30 -115 -13 -211 -22
-212 -21 -2 1 -12 48 -25 104 -20 97 -23 102 -47 102 -42 0 -301 -29 -310 -34
-4 -3 -25 -53 -47 -111 -36 -98 -40 -105 -69 -109 -99 -15 -339 -45 -342 -43
-1 2 24 67 57 146 33 79 60 145 60 148 0 2 -23 -29 -50 -70 -66 -99 -171 -195
-268 -245 -118 -62 -175 -75 -306 -71 -97 4 -118 8 -168 32 -105 51 -194 176
-235 327 -26 95 -23 298 5 403 24 89 85 224 132 292 47 68 144 169 214 221
132 99 262 146 411 148 164 1 272 -57 314 -170 12 -30 21 -59 21 -63 0 -5 -37
-28 -82 -51 -46 -23 -109 -58 -141 -77 l-58 -35 -35 41 c-132 154 -389 -24
-451 -312 -16 -78 -13 -223 6 -288 38 -125 142 -179 248 -128 47 23 127 105
151 157 18 38 14 37 193 17 73 -9 138 -14 144 -11 7 2 22 30 35 63 50 126 363
836 375 850 4 6 277 34 282 29 3 -3 50 -166 105 -363 127 -460 190 -688 192
-690 0 -1 1 71 1 160 0 103 13 299 35 534 l34 373 30 5 c32 6 272 21 361 23
28 1 83 -3 124 -8z m800 -1475 c12 -12 -19 -24 -86 -35 -79 -12 -141 -33 -73
-25 149 20 341 32 285 18 -11 -3 -22 -8 -25 -12 -3 -4 -43 -15 -90 -26 -97
-21 -135 -36 -75 -29 22 2 105 11 185 20 80 8 210 27 290 41 80 15 174 25 210
24 79 -2 443 -31 447 -35 5 -5 -285 -96 -462 -144 -248 -68 -451 -115 -672
-157 l-188 -36 -225 46 c-286 58 -726 170 -899 229 -73 25 -136 48 -139 51 -3
3 12 5 34 5 21 0 136 9 254 20 183 16 569 41 825 54 74 3 398 -4 404 -9z"/>
<path d="M4435 8600 c-3 -6 -4 -18 -1 -28 4 -13 0 -18 -15 -19 -30 -3 -39 -14
-33 -41 8 -29 20 -28 38 6 14 25 15 26 16 5 0 -13 5 -23 10 -23 6 0 10 25 10
55 0 51 -10 69 -25 45z"/>
<path d="M4480 8600 c0 -5 5 -10 10 -10 6 0 10 5 10 10 0 6 -4 10 -10 10 -5 0
-10 -4 -10 -10z"/>
<path d="M4519 8576 c-12 -26 -7 -56 11 -56 5 0 10 7 10 15 0 8 7 15 16 15 22
0 14 44 -8 48 -11 2 -22 -6 -29 -22z"/>
<path d="M4324 8568 c3 -13 6 -38 6 -55 0 -26 4 -33 20 -33 23 0 36 22 24 41
-5 9 -10 7 -15 -7 -6 -16 -8 -16 -8 -2 -1 9 4 20 9 23 6 3 10 17 10 31 0 19
-5 24 -26 24 -22 0 -25 -3 -20 -22z m36 -8 c0 -5 -4 -10 -10 -10 -5 0 -10 5
-10 10 0 6 5 10 10 10 6 0 10 -4 10 -10z"/>
<path d="M4475 8570 c-8 -14 4 -70 15 -70 15 0 21 18 9 25 -6 4 -8 18 -5 31 6
24 -7 33 -19 14z"/>
<path d="M4110 8540 c0 -5 5 -10 10 -10 6 0 10 5 10 10 0 6 -4 10 -10 10 -5 0
-10 -4 -10 -10z"/>
<path d="M4262 8538 c-7 -7 -12 -21 -13 -32 -1 -18 -2 -17 -8 4 -7 24 -35 30
-52 12 -10 -10 1 -72 12 -72 5 0 9 15 10 33 0 32 0 32 12 7 18 -39 35 -52 57
-45 19 6 29 45 12 45 -5 0 -7 14 -4 30 4 31 -6 38 -26 18z m18 -68 c0 -5 -7
-10 -15 -10 -8 0 -15 5 -15 10 0 6 7 10 15 10 8 0 15 -4 15 -10z"/>
<path d="M3962 8528 c-16 -16 -15 -33 3 -48 11 -9 14 -22 10 -42 -7 -30 10
-39 33 -16 18 18 15 39 -9 65 -20 20 -20 23 -5 29 9 3 16 10 16 15 0 13 -34
11 -48 -3z"/>
<path d="M4550 8530 c0 -5 5 -10 10 -10 6 0 10 5 10 10 0 6 -4 10 -10 10 -5 0
-10 -4 -10 -10z"/>
<path d="M4035 8500 c-23 -25 2 -84 31 -73 19 7 18 23 -1 23 -9 0 -15 9 -15
21 0 28 22 20 38 -15 18 -35 26 -27 18 17 -8 41 -45 55 -71 27z"/>
<path d="M4150 8485 c0 -19 5 -35 10 -35 6 0 10 16 10 35 0 19 -4 35 -10 35
-5 0 -10 -16 -10 -35z"/>
<path d="M4118 8475 c2 -19 8 -35 14 -35 13 0 6 63 -8 67 -6 2 -8 -10 -6 -32z"/>
<path d="M6155 8520 c-35 -39 3 -91 55 -75 28 9 37 51 15 75 -10 11 -26 20
-35 20 -9 0 -25 -9 -35 -20z m43 -34 c3 -11 -1 -17 -9 -14 -7 2 -13 12 -15 22
-3 23 20 15 24 -8z"/>
<path d="M6285 8496 c-19 -28 -9 -58 26 -77 44 -23 80 49 41 84 -26 24 -49 21
-67 -7z m50 -16 c3 -5 2 -10 -4 -10 -5 0 -13 5 -16 10 -3 6 -2 10 4 10 5 0 13
-4 16 -10z"/>
<path d="M2955 8038 c-7 -19 0 -67 12 -79 12 -12 65 9 57 22 -3 5 -14 4 -25
-1 -13 -7 -19 -7 -19 0 0 5 4 10 10 10 11 0 9 28 -3 48 -5 6 -13 12 -18 12 -5
0 -12 -6 -14 -12z m25 -18 c0 -5 -2 -10 -4 -10 -3 0 -8 5 -11 10 -3 6 -1 10 4
10 6 0 11 -4 11 -10z"/>
<path d="M2895 8018 c-11 -6 -22 -12 -24 -14 -8 -7 32 -84 44 -84 6 0 20 7 31
15 19 15 19 16 -1 14 -36 -2 -38 1 -19 23 19 21 19 21 -3 16 -29 -8 -40 8 -13
17 11 3 20 11 20 16 0 12 -10 11 -35 -3z"/>
<path d="M2815 7965 c-16 -7 -33 -11 -37 -8 -14 8 -8 -22 8 -45 9 -13 13 -26
10 -30 -4 -3 -13 4 -22 16 -8 12 -22 22 -30 22 -21 0 -17 -27 6 -33 13 -3 18
-10 14 -21 -7 -19 10 -21 28 -3 7 8 24 16 38 20 35 9 69 37 53 43 -7 3 -13 11
-13 19 0 24 -24 33 -55 20z m38 -35 c3 -11 4 -20 2 -20 -2 0 -10 -3 -18 -6
-15 -5 -31 21 -21 37 10 16 32 10 37 -11z"/>
<path d="M2720 7963 c-8 -3 -22 -12 -31 -20 -16 -13 -15 -18 8 -59 14 -24 29
-44 34 -44 14 0 11 16 -12 55 l-21 35 31 11 c17 6 31 15 31 20 0 10 -16 11
-40 2z"/>
<path d="M2585 7880 c9 -16 18 -30 21 -30 2 0 -2 14 -11 30 -9 17 -18 30 -21
30 -2 0 2 -13 11 -30z"/>
<path d="M6710 8315 c-10 -12 -10 -18 0 -30 10 -12 10 -15 -4 -15 -9 0 -16 -4
-16 -10 0 -5 9 -10 19 -10 21 0 36 26 21 35 -16 10 -11 28 6 21 10 -4 14 -1
12 6 -7 19 -24 20 -38 3z"/>
<path d="M6747 8273 c-15 -39 -13 -59 4 -33 8 13 12 12 24 -4 8 -11 18 -17 21
-13 4 4 13 -2 21 -13 20 -29 50 -25 68 9 16 32 3 54 -14 24 -9 -16 -12 -16
-21 -3 -5 8 -8 21 -5 28 7 20 -13 14 -25 -8 -16 -30 -28 -24 -26 12 2 49 -27
49 -47 1z m43 8 c0 -6 -4 -13 -10 -16 -5 -3 -10 1 -10 9 0 9 5 16 10 16 6 0
10 -4 10 -9z m60 -71 c0 -5 -2 -10 -4 -10 -3 0 -8 5 -11 10 -3 6 -1 10 4 10 6
0 11 -4 11 -10z"/>
<path d="M7114 8109 c-18 -20 -18 -21 1 -35 22 -16 49 -19 40 -4 -3 6 -13 10
-21 10 -19 0 -18 19 1 26 8 4 15 10 15 15 0 15 -16 10 -36 -12z"/>
<path d="M7174 8085 c0 -19 1 -35 2 -35 1 0 9 12 19 26 14 22 15 28 4 35 -22
14 -25 11 -25 -26z"/>
<path d="M7206 8075 c-3 -9 -6 -28 -6 -42 0 -22 3 -24 25 -19 18 5 25 2 25 -9
0 -21 17 -19 23 3 2 9 8 26 13 37 7 20 7 20 -14 2 -20 -18 -21 -18 -24 10 -3
31 -32 43 -42 18z m30 -21 c-3 -9 -6 -18 -6 -20 0 -2 -4 -4 -9 -4 -5 0 -7 9
-4 20 3 11 10 20 15 20 6 0 7 -7 4 -16z"/>
<path d="M7270 8080 c0 -5 5 -10 10 -10 6 0 10 5 10 10 0 6 -4 10 -10 10 -5 0
-10 -4 -10 -10z"/>
<path d="M7305 8044 c-18 -18 -20 -64 -3 -64 6 0 19 -7 29 -16 22 -20 52 -11
69 20 16 31 5 49 -26 42 -17 -5 -24 -2 -24 8 0 21 -27 27 -45 10z m35 -8 c0
-2 -7 -6 -15 -10 -8 -3 -15 -1 -15 4 0 6 7 10 15 10 8 0 15 -2 15 -4z m40 -45
c-10 -20 -30 -29 -30 -14 0 10 33 44 37 39 3 -2 0 -14 -7 -25z m-48 7 c-9 -9
-15 -9 -24 0 -9 9 -7 12 12 12 19 0 21 -3 12 -12z"/>
<path d="M2191 7591 c-12 -8 -11 -13 10 -30 29 -25 43 -27 35 -5 -3 9 -6 18
-6 20 0 2 -7 4 -16 4 -8 0 -12 5 -9 10 8 12 4 12 -14 1z"/>
<path d="M2160 7562 c0 -5 11 -19 25 -32 19 -18 25 -20 25 -8 0 8 -8 22 -18
31 -20 19 -32 22 -32 9z"/>
<path d="M2136 7538 c5 -8 2 -9 -9 -5 -22 8 -21 -9 2 -39 18 -23 20 -23 40 -6
20 16 21 18 6 40 -16 22 -53 32 -39 10z m24 -34 c0 -8 -4 -12 -10 -9 -5 3 -10
10 -10 16 0 5 5 9 10 9 6 0 10 -7 10 -16z"/>
<path d="M2065 7479 c9 -16 23 -33 31 -36 22 -8 37 11 29 36 -5 16 -12 20 -27
15 -14 -4 -18 -2 -14 5 5 7 -1 11 -14 11 -20 0 -20 -1 -5 -31z m45 -19 c0 -5
-2 -10 -4 -10 -3 0 -8 5 -11 10 -3 6 -1 10 4 10 6 0 11 -4 11 -10z"/>
<path d="M2010 7492 c0 -12 62 -84 67 -78 6 6 -49 85 -59 86 -5 0 -8 -3 -8 -8z"/>
<path d="M1997 7443 c-13 -12 -7 -23 12 -23 11 0 23 -4 26 -10 3 -5 11 -10 17
-10 6 0 1 11 -12 25 -25 26 -32 29 -43 18z"/>
<path d="M1985 7390 c16 -16 30 -28 33 -26 8 9 -31 56 -46 56 -11 0 -8 -8 13
-30z"/>
<path d="M1921 7397 c-8 -10 -7 -19 4 -33 8 -10 14 -23 14 -29 1 -5 -8 1 -19
15 -23 31 -37 20 -16 -12 15 -23 13 -38 -4 -38 -4 0 -13 14 -20 31 -8 19 -16
27 -23 20 -9 -9 26 -71 41 -71 4 0 22 13 39 29 17 15 39 31 49 35 15 6 14 10
-11 36 -32 34 -38 36 -54 17z m49 -37 c0 -18 -19 -11 -30 11 -11 19 -10 20 9
9 12 -6 21 -15 21 -20z"/>
<path d="M1803 7299 c-3 -12 -11 -18 -20 -15 -7 3 -23 -4 -34 -15 -18 -18 -19
-23 -6 -42 29 -44 84 -27 72 22 -5 24 -4 24 8 9 19 -24 34 -23 47 3 9 16 8 25
-6 40 -23 25 -54 24 -61 -2z m-26 -43 c-4 -10 -1 -13 9 -9 16 6 19 -13 3 -23
-14 -8 -43 21 -35 35 10 16 29 13 23 -3z"/>
<path d="M1670 7270 c-13 -9 -13 -12 3 -21 9 -5 17 -16 17 -23 0 -23 40 -65
55 -59 17 6 20 23 4 23 -17 0 -54 52 -51 72 4 20 -6 23 -28 8z"/>
<path d="M1622 7165 c13 -33 32 -65 40 -65 12 0 11 3 -18 41 -15 19 -24 30
-22 24z"/>
<path d="M8504 7295 c-24 -36 -6 -75 34 -75 35 0 52 16 52 50 0 53 -57 69 -86
25z"/>
<path d="M3202 7170 c0 -14 2 -19 5 -12 2 6 2 18 0 25 -3 6 -5 1 -5 -13z"/>
<path d="M6880 7700 c-8 -5 -10 -10 -5 -10 6 0 17 5 25 10 8 5 11 10 5 10 -5
0 -17 -5 -25 -10z"/>
<path d="M6886 8035 c-9 -14 -23 -36 -32 -50 -28 -42 -9 -28 25 21 18 25 31
47 28 50 -2 3 -12 -7 -21 -21z"/>
<path d="M3668 7633 c7 -3 16 -2 19 1 4 3 -2 6 -13 5 -11 0 -14 -3 -6 -6z"/>
<path d="M7567 7193 c-4 -3 -7 -11 -7 -17 0 -6 5 -5 12 2 6 6 9 14 7 17 -3 3
-9 2 -12 -2z"/>
<path d="M2592 6970 c3 -93 9 -125 27 -168 33 -72 39 -57 11 25 -17 48 -24 93
-25 155 -1 48 -5 91 -9 95 -5 5 -6 -44 -4 -107z"/>
<path d="M2680 6636 c0 -2 8 -10 18 -17 15 -13 16 -12 3 4 -13 16 -21 21 -21
13z"/>
<path d="M2107 5809 c7 -7 15 -10 18 -7 3 3 -2 9 -12 12 -14 6 -15 5 -6 -5z"/>
<path d="M2180 5786 c0 -2 7 -7 16 -10 8 -3 12 -2 9 4 -6 10 -25 14 -25 6z"/>
<path d="M8535 5900 l-30 -8 27 -1 c15 0 30 4 33 9 3 6 5 9 3 9 -2 -1 -16 -5
-33 -9z"/>
<path d="M5062 5405 c-121 -27 -246 -123 -296 -229 -106 -224 -9 -491 219
-597 208 -98 465 0 566 215 81 174 51 355 -82 489 -66 66 -156 113 -245 127
-73 12 -84 12 -162 -5z m222 -97 c77 -30 135 -76 176 -140 121 -187 48 -428
-160 -527 -46 -22 -69 -26 -140 -26 -74 0 -93 4 -145 29 -149 74 -237 239
-206 389 16 79 42 128 99 189 101 108 239 140 376 86z"/>
<path d="M5850 5111 c0 -6 4 -13 10 -16 6 -3 7 1 4 9 -7 18 -14 21 -14 7z"/>
<path d="M3963 4943 c4 -3 4 -10 1 -15 -4 -6 -2 -8 3 -5 16 10 166 -25 151
-35 -8 -5 -3 -6 12 -3 14 3 61 -1 105 -10 44 -8 91 -15 105 -14 14 0 -20 9
-75 19 -89 16 -255 51 -295 63 -8 2 -12 2 -7 0z"/>
<path d="M4388 4853 c6 -2 18 -2 25 0 6 3 1 5 -13 5 -14 0 -19 -2 -12 -5z"/>
<path d="M4448 4843 c7 -3 16 -2 19 1 4 3 -2 6 -13 5 -11 0 -14 -3 -6 -6z"/>
<path d="M6521 4735 l-104 -43 -37 -79 c-102 -216 -304 -454 -494 -583 -157
-105 -373 -190 -575 -225 -98 -18 -326 -20 -438 -4 -43 6 -113 19 -155 30 -43
11 -90 17 -105 14 -23 -4 -25 -4 -8 4 l20 10 -20 2 c-11 1 -25 3 -31 3 -6 1
-18 6 -25 12 -16 13 -49 25 -49 19 0 -2 14 -11 30 -20 29 -15 30 -18 30 -81
l0 -65 -47 6 c-88 12 -211 63 -195 80 4 5 2 5 -4 2 -17 -10 -107 48 -159 102
-27 28 -51 49 -53 46 -3 -2 -27 16 -54 40 -28 25 -55 45 -60 45 -6 0 -33 14
-60 31 l-50 30 21 -30 c12 -17 56 -67 98 -111 190 -202 415 -343 697 -435 251
-82 495 -100 727 -52 173 36 414 121 388 137 -8 5 -5 10 10 15 25 8 28 25 4
26 -15 0 -15 2 2 9 18 8 18 9 -5 10 -19 0 -5 11 55 43 357 188 573 452 700
857 25 80 50 157 55 173 4 15 5 26 2 26 -4 -1 -54 -21 -111 -44z m-1582 -1045
c10 -5 24 -23 31 -40 17 -41 -6 -76 -55 -86 -77 -14 -136 65 -86 115 23 23 79
28 110 11z"/>
<path d="M4513 3753 c9 -2 23 -2 30 0 6 3 -1 5 -18 5 -16 0 -22 -2 -12 -5z"/>
<path d="M5280 2555 l0 -355 63 0 c77 0 130 23 178 77 56 62 74 127 73 263 -1
145 -22 208 -98 286 -52 53 -121 84 -188 84 l-28 0 0 -355z"/>
<path d="M6190 2724 c0 -99 3 -136 13 -139 6 -2 90 -6 185 -10 l172 -6 8 23
c5 13 6 73 3 133 l-6 110 -75 6 c-41 4 -126 9 -187 13 l-113 6 0 -136z"/>
<path d="M7046 2726 c-53 -20 -120 -88 -148 -150 -18 -42 -22 -69 -23 -151 0
-87 3 -107 26 -155 55 -117 143 -180 253 -180 49 0 71 6 111 29 28 16 58 38
68 49 18 20 18 20 90 -13 l72 -33 3 276 c1 176 -1 279 -8 286 -7 7 -30 -4 -71
-32 -33 -23 -64 -42 -68 -42 -4 0 -28 19 -52 43 -80 76 -172 103 -253 73z"/>
<path d="M6200 2251 l0 -128 152 -6 c83 -4 179 -7 214 -7 l63 0 -25 54 c-13
29 -32 85 -42 124 -10 40 -20 73 -23 75 -2 3 -79 7 -171 11 l-168 6 0 -129z"/>
<path d="M4387 2798 c-4 -35 -9 -114 -13 -177 l-7 -114 79 8 c159 14 224 72
224 195 0 62 -21 105 -63 130 -26 16 -50 20 -123 20 l-91 0 -6 -62z"/>
<path d="M3532 2578 c-36 -95 -112 -319 -112 -330 0 -10 53 -10 154 -1 l77 6
-6 41 c-11 72 -55 281 -68 326 l-13 44 -32 -86z"/>
<path d="M5778 1363 c7 -3 16 -2 19 1 4 3 -2 6 -13 5 -11 0 -14 -3 -6 -6z"/>
<path d="M5718 1353 c7 -3 16 -2 19 1 4 3 -2 6 -13 5 -11 0 -14 -3 -6 -6z"/>
<path d="M5615 1340 c-42 -11 -1 -11 50 -1 34 7 35 9 10 9 -16 0 -43 -4 -60
-8z"/>
<path d="M5488 1313 c7 -3 16 -2 19 1 4 3 -2 6 -13 5 -11 0 -14 -3 -6 -6z"/>
<path d="M5438 1303 c7 -3 16 -2 19 1 4 3 -2 6 -13 5 -11 0 -14 -3 -6 -6z"/>
<path d="M8080 2948 c-16 -7 -20 -12 -12 -15 8 -3 21 2 30 11 19 18 17 19 -18
4z"/>
</g>
</svg>
